<mxfile host="app.diagrams.net" modified="2023-05-16T09:57:42.588Z" agent="Mozilla/5.0 (Windows NT 10.0; Win64; x64; rv:102.0) Gecko/20100101 Firefox/102.0" etag="ZC8WvSE65pXau6YLRpoe" version="21.3.2" type="device">
  <diagram name="Seite-1" id="9co04QmEE0R0oi6VNs9X">
    <mxGraphModel dx="1416" dy="747" grid="1" gridSize="10" guides="1" tooltips="1" connect="1" arrows="1" fold="1" page="1" pageScale="1" pageWidth="827" pageHeight="1169" math="0" shadow="0">
      <root>
        <mxCell id="0" />
        <mxCell id="1" parent="0" />
        <mxCell id="28d11MB7t_VA5oIBtJsD-2" value="&lt;font style=&quot;font-size: 11px;&quot; face=&quot;Verdana&quot;&gt;&lt;b&gt;Consumer App&lt;/b&gt;&lt;/font&gt;" style="rounded=1;whiteSpace=wrap;html=1;fillColor=#dae8fc;strokeColor=#6c8ebf;" parent="1" vertex="1">
          <mxGeometry x="50" y="452" width="136" height="78" as="geometry" />
        </mxCell>
        <mxCell id="28d11MB7t_VA5oIBtJsD-3" value="&lt;i&gt;&lt;font face=&quot;Verdana&quot;&gt;request endpoint for type &quot;oen&quot;&lt;br&gt;&lt;/font&gt;&lt;/i&gt;" style="endArrow=classic;html=1;rounded=0;entryX=-0.033;entryY=0.371;entryDx=0;entryDy=0;entryPerimeter=0;exitX=0.993;exitY=0.372;exitDx=0;exitDy=0;exitPerimeter=0;" parent="1" edge="1">
          <mxGeometry x="-0.095" y="18" width="50" height="50" relative="1" as="geometry">
            <mxPoint x="189.048" y="481.0160000000001" as="sourcePoint" />
            <mxPoint x="410.03999999999996" y="479.9549999999999" as="targetPoint" />
            <mxPoint as="offset" />
          </mxGeometry>
        </mxCell>
        <mxCell id="28d11MB7t_VA5oIBtJsD-4" value="&lt;font style=&quot;font-size: 11px;&quot; face=&quot;Verdana&quot;&gt;&lt;b&gt;Discovery Finder&lt;/b&gt;&lt;/font&gt;" style="rounded=1;whiteSpace=wrap;html=1;fillColor=#fff2cc;strokeColor=#d6b656;" parent="1" vertex="1">
          <mxGeometry x="410" y="441" width="120" height="105" as="geometry" />
        </mxCell>
        <mxCell id="28d11MB7t_VA5oIBtJsD-6" value="" style="endArrow=classic;html=1;rounded=0;exitX=0.017;exitY=0.648;exitDx=0;exitDy=0;exitPerimeter=0;" parent="1" edge="1">
          <mxGeometry width="50" height="50" relative="1" as="geometry">
            <mxPoint x="408.03999999999996" y="509.03999999999996" as="sourcePoint" />
            <mxPoint x="186" y="510" as="targetPoint" />
          </mxGeometry>
        </mxCell>
        <mxCell id="28d11MB7t_VA5oIBtJsD-8" value="&lt;div style=&quot;font-size: 11px;&quot;&gt;&lt;font style=&quot;font-size: 11px;&quot;&gt;&lt;i&gt;&lt;font style=&quot;font-size: 11px;&quot; face=&quot;Verdana&quot;&gt;response with &quot;endpoint: http:\\&quot;&lt;/font&gt;&lt;/i&gt;&lt;/font&gt;&lt;/div&gt;&lt;div style=&quot;font-size: 11px;&quot;&gt;&lt;font style=&quot;font-size: 11px;&quot;&gt;&lt;i&gt;&lt;font style=&quot;font-size: 11px;&quot; face=&quot;Verdana&quot;&gt;&lt;br&gt;&lt;/font&gt;&lt;/i&gt;&lt;/font&gt;&lt;/div&gt;" style="text;html=1;align=center;verticalAlign=middle;resizable=0;points=[];autosize=1;strokeColor=none;fillColor=none;" parent="1" vertex="1">
          <mxGeometry x="191" y="508" width="210" height="40" as="geometry" />
        </mxCell>
        <mxCell id="28d11MB7t_VA5oIBtJsD-13" value="&lt;font style=&quot;font-size: 11px;&quot;&gt;&lt;b&gt;BPN Discovery&lt;/b&gt;&lt;/font&gt;" style="rounded=1;whiteSpace=wrap;html=1;fillColor=#dae8fc;strokeColor=#6c8ebf;" parent="1" vertex="1">
          <mxGeometry x="410" y="680" width="120" height="60" as="geometry" />
        </mxCell>
        <mxCell id="28d11MB7t_VA5oIBtJsD-14" value="" style="endArrow=classic;html=1;rounded=0;entryX=0.408;entryY=0.99;entryDx=0;entryDy=0;entryPerimeter=0;exitX=0.417;exitY=0;exitDx=0;exitDy=0;exitPerimeter=0;" parent="1" source="28d11MB7t_VA5oIBtJsD-13" target="28d11MB7t_VA5oIBtJsD-4" edge="1">
          <mxGeometry width="50" height="50" relative="1" as="geometry">
            <mxPoint x="459" y="670" as="sourcePoint" />
            <mxPoint x="460" y="680" as="targetPoint" />
          </mxGeometry>
        </mxCell>
        <mxCell id="28d11MB7t_VA5oIBtJsD-16" value="&lt;div style=&quot;font-size: 11px;&quot;&gt;&lt;font style=&quot;font-size: 11px;&quot;&gt;&lt;i&gt;registers himself at startup&lt;/i&gt;&lt;/font&gt;&lt;/div&gt;" style="text;html=1;align=center;verticalAlign=middle;resizable=0;points=[];autosize=1;strokeColor=none;fillColor=none;" parent="1" vertex="1">
          <mxGeometry x="453" y="594" width="160" height="30" as="geometry" />
        </mxCell>
        <mxCell id="KuprJlIQe4Yt3sdYeszI-2" value="&lt;b&gt;&lt;font style=&quot;font-size: 11px;&quot; face=&quot;Verdana&quot;&gt;Keycloak&lt;/font&gt;&lt;/b&gt;" style="rounded=1;whiteSpace=wrap;html=1;fillColor=#dae8fc;strokeColor=#6c8ebf;" parent="1" vertex="1">
          <mxGeometry x="101" y="234" width="170" height="77.27" as="geometry" />
        </mxCell>
        <mxCell id="KuprJlIQe4Yt3sdYeszI-3" value="&lt;div style=&quot;font-size: 11px;&quot;&gt;&lt;font style=&quot;font-size: 11px;&quot; face=&quot;Verdana&quot;&gt;&lt;i&gt;&lt;font style=&quot;font-size: 11px;&quot;&gt;administrates the&amp;nbsp; &lt;br&gt;&lt;/font&gt;&lt;/i&gt;&lt;/font&gt;&lt;/div&gt;&lt;div style=&quot;font-size: 11px;&quot;&gt;&lt;font style=&quot;font-size: 11px;&quot; face=&quot;Verdana&quot;&gt;&lt;i&gt;&lt;font style=&quot;font-size: 11px;&quot;&gt;authorization token&lt;/font&gt;&lt;/i&gt;&lt;/font&gt;&lt;/div&gt;" style="text;html=1;align=center;verticalAlign=middle;resizable=0;points=[];autosize=1;strokeColor=none;fillColor=none;" parent="1" vertex="1">
          <mxGeometry x="216" y="370.27" width="130" height="40" as="geometry" />
        </mxCell>
        <mxCell id="KuprJlIQe4Yt3sdYeszI-4" value="" style="endArrow=classic;startArrow=classic;html=1;rounded=0;" parent="1" edge="1">
          <mxGeometry width="50" height="50" relative="1" as="geometry">
            <mxPoint x="271" y="306" as="sourcePoint" />
            <mxPoint x="411" y="446" as="targetPoint" />
          </mxGeometry>
        </mxCell>
      </root>
    </mxGraphModel>
  </diagram>
</mxfile>
